<svg xmlns="http://www.w3.org/2000/svg" viewBox="0 0 900 130" width="100%" height="100%">
  <defs>
        <style>
      @keyframes twinkleA { 0%, 100% { opacity: 0.15; transform: scale(0.85) translate(0, 0); } 50% { opacity: 0.95; transform: scale(1.15) translate(1px, -1px); } }
      @keyframes twinkleB { 0%, 100% { opacity: 0.85; transform: scale(1.1) translate(0, 0); } 40% { opacity: 0.2; transform: scale(0.75) translate(-1px, 0.8px); } }
      @keyframes twinkleC { 0%, 100% { opacity: 0.3; transform: scale(0.9) translate(0, 0); } 70% { opacity: 1; transform: scale(1.2) translate(0.8px, 1px); } }
      @keyframes twinkleD { 0%, 100% { opacity: 0.9; transform: scale(1); } 50% { opacity: 0.15; transform: scale(0.65); } }
      @keyframes twinkleE { 0%, 100% { opacity: 0.25; transform: scale(0.8); } 60% { opacity: 0.85; transform: scale(1.1); } }
      @keyframes twinkleF { 0%, 100% { opacity: 0.7; transform: scale(1) translate(0, 0); } 30% { opacity: 0.1; transform: scale(0.7) translate(0.5px, -0.5px); } }
      @keyframes nebulaDrift { 0%, 100% { opacity: 0.25; transform: translate(0, 0); } 50% { opacity: 0.45; transform: translate(6px, -4px); } }

      .star-a { animation: twinkleA 3.4s infinite ease-in-out; }
      .star-b { animation: twinkleB 2.6s infinite ease-in-out 0.4s; }
      .star-c { animation: twinkleC 4.2s infinite ease-in-out 1.1s; }
      .star-d { animation: twinkleD 3.0s infinite ease-in-out 1.8s; }
      .star-e { animation: twinkleE 2.1s infinite ease-in-out 0.7s; }
      .star-f { animation: twinkleF 3.8s infinite ease-in-out 2.3s; }
      .nebula { animation: nebulaDrift 10s infinite ease-in-out; }
    </style>
    <linearGradient id="vBg" x1="0%" y1="0%" x2="100%" y2="100%">
      <stop offset="0%" stop-color="#060212" />
      <stop offset="50%" stop-color="#14062a" />
      <stop offset="100%" stop-color="#060212" />
    </linearGradient>
    <linearGradient id="vBorder" x1="0%" y1="0%" x2="100%" y2="0%">
      <stop offset="0%" stop-color="#3b0764" />
      <stop offset="50%" stop-color="#a855f7" />
      <stop offset="100%" stop-color="#3b0764" />
    </linearGradient>
  </defs>

  <rect x="2" y="2" width="896" height="126" rx="14" fill="url(#vBg)" stroke="url(#vBorder)" stroke-width="1.2" />

  <g fill="#ffffff">
    <circle class="star-c" cx="416" cy="100" r="2.0" opacity="0.48" />
    <circle class="star-f" cx="347" cy="52" r="1.1" opacity="0.21" />
    <circle class="star-a" cx="357" cy="76" r="0.7" opacity="0.67" />
    <circle class="star-b" cx="811" cy="60" r="1.1" opacity="0.41" />
    <circle class="star-a" cx="349" cy="93" r="1.1" opacity="0.76" />
    <circle class="star-f" cx="677" cy="84" r="0.7" opacity="0.6" />
    <circle class="star-d" cx="141" cy="56" r="1.1" opacity="0.61" />
    <circle class="star-a" cx="428" cy="13" r="1.1" opacity="0.5" />
    <circle class="star-f" cx="120" cy="109" r="1.1" opacity="0.24" />
    <circle class="star-a" cx="880" cy="96" r="0.7" opacity="0.51" />
    <circle class="star-d" cx="550" cy="67" r="1.1" opacity="0.56" />
    <circle class="star-e" cx="623" cy="27" r="1.5" opacity="0.65" />
    <circle class="star-c" cx="628" cy="39" r="1.5" opacity="0.81" />
    <circle class="star-d" cx="862" cy="102" r="0.7" opacity="0.33" />
    <circle class="star-e" cx="782" cy="81" r="0.7" opacity="0.33" />
    <circle class="star-a" cx="432" cy="119" r="1.1" opacity="0.76" />
    <circle class="star-c" cx="861" cy="50" r="0.7" opacity="0.87" />
    <circle class="star-a" cx="559" cy="86" r="0.7" opacity="0.82" />
    <circle class="star-d" cx="292" cy="24" r="0.7" opacity="0.7" />
    <circle class="star-a" cx="754" cy="15" r="0.7" opacity="0.25" />
    <circle class="star-f" cx="146" cy="42" r="1.1" opacity="0.59" />
    <circle class="star-c" cx="855" cy="14" r="1.5" opacity="0.22" />
    <circle class="star-f" cx="626" cy="60" r="1.5" opacity="0.67" />
    <circle class="star-c" cx="306" cy="37" r="0.7" opacity="0.37" />
    <circle class="star-d" cx="257" cy="80" r="0.7" opacity="0.81" />
    <circle class="star-a" cx="671" cy="68" r="2.0" opacity="0.43" />
    <circle class="star-f" cx="389" cy="78" r="0.7" opacity="0.66" />
    <circle class="star-f" cx="607" cy="76" r="0.7" opacity="0.89" />
    <circle class="star-a" cx="520" cy="96" r="1.1" opacity="0.33" />
    <circle class="star-f" cx="760" cy="34" r="0.7" opacity="0.47" />
    <circle class="star-f" cx="535" cy="85" r="1.5" opacity="0.76" />
    <circle class="star-a" cx="461" cy="101" r="0.7" opacity="0.76" />
    <circle class="star-a" cx="393" cy="17" r="1.1" opacity="0.62" />
    <circle class="star-b" cx="81" cy="104" r="2.0" opacity="0.89" />
    <circle class="star-c" cx="653" cy="24" r="0.7" opacity="0.67" />
    <circle class="star-c" cx="447" cy="98" r="0.7" opacity="0.21" />
    <circle class="star-e" cx="476" cy="42" r="0.7" opacity="0.71" />
    <circle class="star-a" cx="664" cy="86" r="1.1" opacity="0.3" />
    <circle class="star-a" cx="752" cy="63" r="0.7" opacity="0.58" />
    <circle class="star-c" cx="458" cy="115" r="1.1" opacity="0.27" />
    <circle class="star-f" cx="879" cy="36" r="0.7" opacity="0.66" />
    <circle class="star-b" cx="422" cy="37" r="0.7" opacity="0.41" />
    <circle class="star-a" cx="632" cy="52" r="1.1" opacity="0.39" />
    <circle class="star-b" cx="134" cy="112" r="0.7" opacity="0.8" />
    <circle class="star-a" cx="343" cy="22" r="1.5" opacity="0.3" />
    <circle class="star-f" cx="231" cy="13" r="0.7" opacity="0.31" />
    <circle class="star-c" cx="481" cy="10" r="0.7" opacity="0.22" />
    <circle class="star-a" cx="264" cy="42" r="0.7" opacity="0.39" />
    <circle class="star-e" cx="443" cy="35" r="0.7" opacity="0.5" />
    <circle class="star-f" cx="418" cy="103" r="0.7" opacity="0.49" />
  </g>


  <text x="30" y="36" font-family="-apple-system, BlinkMacSystemFont, 'Segoe UI', Roboto, sans-serif" font-weight="800" font-size="17" fill="#f5d0fe">Dust-vpn - <tspan font-weight="400" font-style="italic" font-size="13.5" fill="#c4b5fd">Open-Source Windows VPN Client</tspan></text>
  <text x="30" y="58" font-family="-apple-system, BlinkMacSystemFont, 'Segoe UI', Roboto, sans-serif" font-weight="400" font-size="13" fill="#e9d5ff">Desktop client for WireGuard &amp; AmneziaWG custom server management with packet obfuscation &amp; dust:// handler.</text>

  <rect x="30" y="74" width="840" height="34" rx="6" fill="#1c0a36" stroke="#a855f7" stroke-opacity="0.3" />
  <text x="44" y="95" font-family="-apple-system, BlinkMacSystemFont, 'Segoe UI', Roboto, sans-serif" font-weight="700" font-size="12" fill="#c084fc">Core Stack &amp; Features:</text>
  <text x="185" y="95" font-family="-apple-system, BlinkMacSystemFont, 'Segoe UI', Roboto, sans-serif" font-weight="400" font-size="12" fill="#f5f3ff">Python, WireGuard Engine, AmneziaWG Core, Packet Obfuscation, Windows APIs</text>
</svg>